<svg width="16" height="14" viewBox="0 0 16 14" fill="none" xmlns="http://www.w3.org/2000/svg">
<path d="M1.54648 0.13501H15.1449C15.3452 0.13501 15.5374 0.214445 15.6791 0.355842C15.8207 0.497238 15.9003 0.689013 15.9003 0.888978V12.9525C15.9003 13.1524 15.8207 13.3442 15.6791 13.4856C15.5374 13.627 15.3452 13.7064 15.1449 13.7064H1.54648C1.34612 13.7064 1.15396 13.627 1.01229 13.4856C0.870609 13.3442 0.791016 13.1524 0.791016 12.9525V0.888978C0.791016 0.689013 0.870609 0.497238 1.01229 0.355842C1.15396 0.214445 1.34612 0.13501 1.54648 0.13501ZM8.391 6.68172L3.54696 2.57636L2.56863 3.72541L8.40083 8.66767L14.128 3.72164L13.1399 2.58088L8.39176 6.68172H8.391Z" fill="#2B2B2B"/>
</svg>
