<svg width="19" height="19" viewBox="0 0 19 19" fill="none" xmlns="http://www.w3.org/2000/svg">
<g clip-path="url(#clip0_41718_87)">
<path d="M1.79102 4.43671L7.07928 2.1748L11.6121 4.43671L16.3738 2.40024C16.4313 2.37565 16.494 2.36569 16.5562 2.37125C16.6185 2.3768 16.6785 2.39771 16.7307 2.43209C16.7829 2.46647 16.8257 2.51325 16.8553 2.56822C16.8849 2.6232 16.9004 2.68465 16.9003 2.74707V14.9923L11.6121 17.2542L7.07928 14.9923L2.31758 17.0287C2.26009 17.0533 2.1974 17.0633 2.1351 17.0577C2.07281 17.0522 2.01288 17.0313 1.96068 16.9969C1.90849 16.9625 1.86566 16.9157 1.83605 16.8608C1.80643 16.8058 1.79096 16.7443 1.79102 16.6819V4.43671ZM11.6121 15.5683V6.07734L11.563 6.09846L7.07928 3.86068V13.3516L7.12838 13.3305L11.6121 15.5683Z" fill="#2B2B2B"/>
</g>
<defs>
<clipPath id="clip0_41718_87">
<rect width="18.1312" height="18.0952" fill="white" transform="translate(0.280273 0.666748)"/>
</clipPath>
</defs>
</svg>
