<svg width="19" height="19" viewBox="0 0 19 19" fill="none" xmlns="http://www.w3.org/2000/svg">
<g clip-path="url(#clip0_41718_61)">
<path d="M4.81308 1.58765H13.8787C14.079 1.58765 14.2712 1.66708 14.4129 1.80848C14.5545 1.94988 14.6341 2.14165 14.6341 2.34161V15.913C14.6341 16.113 14.5545 16.3048 14.4129 16.4462C14.2712 16.5876 14.079 16.667 13.8787 16.667H4.81308C4.61272 16.667 4.42057 16.5876 4.27889 16.4462C4.13721 16.3048 4.05762 16.113 4.05762 15.913V2.34161C4.05762 2.14165 4.13721 1.94988 4.27889 1.80848C4.42057 1.66708 4.61272 1.58765 4.81308 1.58765ZM9.34588 12.8972C9.14552 12.8972 8.95336 12.9766 8.81168 13.118C8.67001 13.2594 8.59041 13.4512 8.59041 13.6511C8.59041 13.8511 8.67001 14.0429 8.81168 14.1843C8.95336 14.3257 9.14552 14.4051 9.34588 14.4051C9.54624 14.4051 9.7384 14.3257 9.88007 14.1843C10.0218 14.0429 10.1013 13.8511 10.1013 13.6511C10.1013 13.4512 10.0218 13.2594 9.88007 13.118C9.7384 12.9766 9.54624 12.8972 9.34588 12.8972Z" fill="#2B2B2B"/>
</g>
<defs>
<clipPath id="clip0_41718_61">
<rect width="18.1312" height="18.0952" fill="white" transform="translate(0.280273 0.0795898)"/>
</clipPath>
</defs>
</svg>
